<svg xmlns="http://www.w3.org/2000/svg" viewBox="0 0 400 300">
  <defs>
    <linearGradient id="skyCA" x1="0" y1="0" x2="0" y2="1">
      <stop offset="0%" stop-color="#46a0e2"/>
      <stop offset="100%" stop-color="#a2d2ee"/>
    </linearGradient>
    <linearGradient id="lawnCA" x1="0" y1="0" x2="0" y2="1">
      <stop offset="0%" stop-color="#45a84d"/>
      <stop offset="100%" stop-color="#358840"/>
    </linearGradient>
    <filter id="bldgShadow">
      <feDropShadow dx="2" dy="3" stdDeviation="3" flood-opacity="0.1"/>
    </filter>
    <pattern id="lawnStripesCA" width="400" height="26" patternUnits="userSpaceOnUse">
      <rect width="400" height="13" fill="#40a045" opacity="0.2"/>
    </pattern>
  </defs>

  <!-- Blue sky -->
  <rect width="400" height="300" fill="url(#skyCA)"/>

  <!-- Sun -->
  <circle cx="370" cy="32" r="28" fill="#FFD700" opacity="0.15"/>
  <circle cx="370" cy="32" r="20" fill="#FFD700" opacity="0.25"/>
  <circle cx="370" cy="32" r="16" fill="#FFD700"/>

  <!-- Clouds -->
  <g opacity="0.7">
    <ellipse cx="120" cy="25" rx="42" ry="13" fill="#fff"/>
    <ellipse cx="98" cy="22" rx="28" ry="11" fill="#fff"/>
    <ellipse cx="145" cy="22" rx="30" ry="10" fill="#fff"/>
  </g>
  <g opacity="0.5">
    <ellipse cx="280" cy="20" rx="32" ry="10" fill="#fff"/>
    <ellipse cx="300" cy="18" rx="22" ry="8" fill="#fff"/>
  </g>

  <!-- Pristine green lawn -->
  <rect y="200" width="400" height="100" fill="url(#lawnCA)"/>
  <rect y="200" width="400" height="100" fill="url(#lawnStripesCA)"/>

  <!-- Commercial building - freshly painted -->
  <g filter="url(#bldgShadow)">
    <rect x="45" y="48" width="310" height="152" fill="#ECEFF1"/>
  </g>
  <!-- Roof edge - clean -->
  <rect x="40" y="42" width="320" height="10" fill="#B0BEC5"/>

  <!-- Clean windows row 1 -->
  <rect x="70" y="65" width="38" height="32" fill="#80DEEA" stroke="#546E7A" stroke-width="1.5"/>
  <rect x="128" y="65" width="38" height="32" fill="#80DEEA" stroke="#546E7A" stroke-width="1.5"/>
  <rect x="186" y="65" width="38" height="32" fill="#80DEEA" stroke="#546E7A" stroke-width="1.5"/>
  <rect x="244" y="65" width="38" height="32" fill="#80DEEA" stroke="#546E7A" stroke-width="1.5"/>
  <rect x="302" y="65" width="38" height="32" fill="#80DEEA" stroke="#546E7A" stroke-width="1.5"/>
  <!-- Window reflections -->
  <rect x="73" y="68" width="8" height="12" fill="#fff" opacity="0.12" rx="1"/>
  <rect x="131" y="68" width="8" height="12" fill="#fff" opacity="0.12" rx="1"/>
  <rect x="189" y="68" width="8" height="12" fill="#fff" opacity="0.12" rx="1"/>
  <rect x="247" y="68" width="8" height="12" fill="#fff" opacity="0.12" rx="1"/>
  <rect x="305" y="68" width="8" height="12" fill="#fff" opacity="0.12" rx="1"/>

  <!-- Clean windows row 2 -->
  <rect x="70" y="115" width="38" height="32" fill="#80DEEA" stroke="#546E7A" stroke-width="1.5"/>
  <rect x="128" y="115" width="38" height="32" fill="#80DEEA" stroke="#546E7A" stroke-width="1.5"/>
  <rect x="186" y="115" width="38" height="32" fill="#80DEEA" stroke="#546E7A" stroke-width="1.5"/>
  <rect x="244" y="115" width="38" height="32" fill="#80DEEA" stroke="#546E7A" stroke-width="1.5"/>
  <rect x="302" y="115" width="38" height="32" fill="#80DEEA" stroke="#546E7A" stroke-width="1.5"/>
  <rect x="73" y="118" width="8" height="12" fill="#fff" opacity="0.12" rx="1"/>
  <rect x="131" y="118" width="8" height="12" fill="#fff" opacity="0.12" rx="1"/>
  <rect x="189" y="118" width="8" height="12" fill="#fff" opacity="0.12" rx="1"/>
  <rect x="247" y="118" width="8" height="12" fill="#fff" opacity="0.12" rx="1"/>
  <rect x="305" y="118" width="8" height="12" fill="#fff" opacity="0.12" rx="1"/>

  <!-- Glass door -->
  <rect x="178" y="160" width="44" height="40" fill="#455A64"/>
  <rect x="180" y="162" width="18" height="15" fill="#80DEEA" opacity="0.5" rx="1"/>
  <rect x="202" y="162" width="18" height="15" fill="#80DEEA" opacity="0.5" rx="1"/>
  <circle cx="218" cy="180" r="2" fill="#FFC107"/>

  <!-- Landscaped entrance - symmetrical shrubs -->
  <circle cx="163" cy="195" r="14" fill="#2E7D32"/>
  <circle cx="163" cy="190" r="10" fill="#43A047"/>
  <circle cx="237" cy="195" r="14" fill="#2E7D32"/>
  <circle cx="237" cy="190" r="10" fill="#43A047"/>

  <!-- Trimmed hedges along building -->
  <rect x="50" y="190" width="100" height="14" rx="7" fill="#2E7D32"/>
  <rect x="52" y="188" width="96" height="8" rx="4" fill="#388E3C"/>
  <rect x="250" y="190" width="100" height="14" rx="7" fill="#2E7D32"/>
  <rect x="252" y="188" width="96" height="8" rx="4" fill="#388E3C"/>

  <!-- Ornamental trees -->
  <!-- Left tree -->
  <rect x="20" y="140" width="10" height="60" fill="#5D4037" rx="2"/>
  <circle cx="25" cy="118" r="26" fill="#2E7D32"/>
  <circle cx="25" cy="106" r="18" fill="#43A047"/>
  <circle cx="12" cy="125" r="14" fill="#388E3C"/>
  <circle cx="38" cy="122" r="15" fill="#388E3C"/>
  <circle cx="25" cy="100" r="10" fill="#66BB6A" opacity="0.5"/>
  <!-- Right tree -->
  <rect x="368" y="140" width="10" height="60" fill="#5D4037" rx="2"/>
  <circle cx="373" cy="118" r="26" fill="#2E7D32"/>
  <circle cx="373" cy="106" r="18" fill="#43A047"/>
  <circle cx="360" cy="125" r="14" fill="#388E3C"/>
  <circle cx="386" cy="122" r="15" fill="#388E3C"/>
  <circle cx="373" cy="100" r="10" fill="#66BB6A" opacity="0.5"/>

  <!-- Flower beds along building -->
  <!-- Left flowers -->
  <circle cx="62" cy="205" r="4" fill="#E91E63"/>
  <circle cx="62" cy="205" r="2" fill="#F48FB1"/>
  <circle cx="78" cy="207" r="4.5" fill="#FF5722"/>
  <circle cx="78" cy="207" r="2.2" fill="#FFAB91"/>
  <circle cx="94" cy="205" r="4" fill="#9C27B0"/>
  <circle cx="94" cy="205" r="2" fill="#CE93D8"/>
  <circle cx="110" cy="207" r="4" fill="#E91E63"/>
  <circle cx="110" cy="207" r="2" fill="#F48FB1"/>
  <circle cx="126" cy="205" r="4.5" fill="#FF5722"/>
  <circle cx="126" cy="205" r="2.2" fill="#FFAB91"/>
  <circle cx="140" cy="207" r="4" fill="#9C27B0"/>
  <circle cx="140" cy="207" r="2" fill="#CE93D8"/>
  <!-- Right flowers -->
  <circle cx="262" cy="205" r="4" fill="#9C27B0"/>
  <circle cx="262" cy="205" r="2" fill="#CE93D8"/>
  <circle cx="278" cy="207" r="4.5" fill="#E91E63"/>
  <circle cx="278" cy="207" r="2.2" fill="#F48FB1"/>
  <circle cx="294" cy="205" r="4" fill="#FF5722"/>
  <circle cx="294" cy="205" r="2" fill="#FFAB91"/>
  <circle cx="310" cy="207" r="4" fill="#E91E63"/>
  <circle cx="310" cy="207" r="2" fill="#F48FB1"/>
  <circle cx="326" cy="205" r="4.5" fill="#9C27B0"/>
  <circle cx="326" cy="205" r="2.2" fill="#CE93D8"/>
  <circle cx="340" cy="207" r="4" fill="#FF5722"/>
  <circle cx="340" cy="207" r="2" fill="#FFAB91"/>

  <!-- Clean walkway -->
  <rect x="185" y="200" width="30" height="100" rx="2" fill="#CFD8DC"/>
  <!-- Stone pattern -->
  <rect x="187" y="202" width="12" height="10" fill="#B0BEC5" rx="1" stroke="#90A4AE" stroke-width="0.5"/>
  <rect x="201" y="202" width="12" height="10" fill="#E0E0E0" rx="1" stroke="#90A4AE" stroke-width="0.5"/>
  <rect x="187" y="214" width="12" height="10" fill="#E0E0E0" rx="1" stroke="#90A4AE" stroke-width="0.5"/>
  <rect x="201" y="214" width="12" height="10" fill="#B0BEC5" rx="1" stroke="#90A4AE" stroke-width="0.5"/>
  <rect x="187" y="226" width="12" height="10" fill="#B0BEC5" rx="1" stroke="#90A4AE" stroke-width="0.5"/>
  <rect x="201" y="226" width="12" height="10" fill="#E0E0E0" rx="1" stroke="#90A4AE" stroke-width="0.5"/>
  <rect x="187" y="238" width="12" height="10" fill="#E0E0E0" rx="1" stroke="#90A4AE" stroke-width="0.5"/>
  <rect x="201" y="238" width="12" height="10" fill="#B0BEC5" rx="1" stroke="#90A4AE" stroke-width="0.5"/>
  <rect x="187" y="250" width="12" height="10" fill="#B0BEC5" rx="1" stroke="#90A4AE" stroke-width="0.5"/>
  <rect x="201" y="250" width="12" height="10" fill="#E0E0E0" rx="1" stroke="#90A4AE" stroke-width="0.5"/>
  <rect x="187" y="262" width="12" height="10" fill="#E0E0E0" rx="1" stroke="#90A4AE" stroke-width="0.5"/>
  <rect x="201" y="262" width="12" height="10" fill="#B0BEC5" rx="1" stroke="#90A4AE" stroke-width="0.5"/>
  <rect x="187" y="274" width="12" height="10" fill="#B0BEC5" rx="1" stroke="#90A4AE" stroke-width="0.5"/>
  <rect x="201" y="274" width="12" height="10" fill="#E0E0E0" rx="1" stroke="#90A4AE" stroke-width="0.5"/>
  <rect x="187" y="286" width="12" height="10" fill="#E0E0E0" rx="1" stroke="#90A4AE" stroke-width="0.5"/>
  <rect x="201" y="286" width="12" height="10" fill="#B0BEC5" rx="1" stroke="#90A4AE" stroke-width="0.5"/>

  <!-- Professional sign -->
  <rect x="14" y="150" width="7" height="52" fill="#5D4037" rx="1"/>
  <rect x="2" y="138" width="34" height="20" rx="3" fill="#1a472a"/>
  <rect x="5" y="141" width="28" height="14" rx="2" fill="#2E7D32"/>

  <!-- Landscape lighting along walkway -->
  <rect x="177" y="218" width="3" height="8" fill="#5D4037"/>
  <ellipse cx="178" cy="217" rx="3" ry="1.5" fill="#FFF176" opacity="0.4"/>
  <rect x="220" y="218" width="3" height="8" fill="#5D4037"/>
  <ellipse cx="221" cy="217" rx="3" ry="1.5" fill="#FFF176" opacity="0.4"/>
  <rect x="177" y="248" width="3" height="8" fill="#5D4037"/>
  <ellipse cx="178" cy="247" rx="3" ry="1.5" fill="#FFF176" opacity="0.4"/>
  <rect x="220" y="248" width="3" height="8" fill="#5D4037"/>
  <ellipse cx="221" cy="247" rx="3" ry="1.5" fill="#FFF176" opacity="0.4"/>

  <!-- Fresh parking lines -->
  <line x1="130" y1="260" x2="130" y2="300" stroke="#fff" stroke-width="2.5" opacity="0.7"/>
  <line x1="195" y1="275" x2="195" y2="300" stroke="#fff" stroke-width="2.5" opacity="0.7"/>
  <line x1="260" y1="260" x2="260" y2="300" stroke="#fff" stroke-width="2.5" opacity="0.7"/>

  <!-- Decorative bench -->
  <rect x="45" y="225" width="30" height="4" fill="#5D4037" rx="1"/>
  <rect x="48" y="229" width="4" height="10" fill="#5D4037"/>
  <rect x="68" y="229" width="4" height="10" fill="#5D4037"/>
  <rect x="45" y="218" width="4" height="11" fill="#5D4037" rx="1"/>
  <rect x="71" y="218" width="4" height="11" fill="#5D4037" rx="1"/>
  <rect x="45" y="218" width="30" height="3" fill="#795548" rx="1"/>
</svg>
